<svg width="33" height="32" viewBox="0 0 33 32" fill="none" xmlns="http://www.w3.org/2000/svg">
<path id="Vector" d="M30.6098 16.0638L25.4182 13.0642V7.10331C25.4182 5.40566 24.5058 3.83566 23.028 2.99322L18.903 0.631831C17.4252 -0.21061 15.6133 -0.21061 14.1355 0.631831L9.99766 3.00598C8.51986 3.84842 7.62033 5.41843 7.60747 7.10331V13.077L2.39018 16.0638C0.91238 16.9063 0.0128505 18.4763 0 20.1611V24.8967C0 26.5943 0.91238 28.1516 2.39018 28.994L6.51518 31.3682C7.99299 32.2106 9.8049 32.2106 11.2827 31.3682L16.4871 28.3813L21.6916 31.3682C23.1694 32.2106 24.9813 32.2106 26.4591 31.3682L30.6098 29.0068C32.0876 28.1643 32.9871 26.5943 33 24.9095V20.1739C33 18.4763 32.0876 16.9063 30.6098 16.0638ZM10.2161 7.11608C10.2161 6.35022 10.6273 5.63542 11.2956 5.25249L15.4334 2.87834C16.1016 2.49541 16.9369 2.49541 17.6051 2.87834L21.743 5.25249C22.4112 5.63542 22.8224 6.35022 22.8224 7.11608V11.5963L19.25 9.55405C17.5537 8.58396 15.472 8.58396 13.7757 9.55405L10.2161 11.5963V7.11608ZM9.99766 29.1344C9.32944 29.5174 8.49416 29.5174 7.82593 29.1344L3.70093 26.7603C3.03271 26.3773 2.60864 25.6625 2.60864 24.8967V20.1611C2.60864 19.3953 3.01986 18.6805 3.68808 18.2976L7.60747 16.0511V20.1611C7.60747 22.1013 8.64836 23.9011 10.3318 24.8839L13.8785 26.9134L9.99766 29.1344ZM16.5129 25.42L11.6554 22.6374C10.7687 22.1268 10.2161 21.1823 10.2161 20.1611V14.5704L15.0736 11.7878C15.9603 11.2772 17.0654 11.2772 17.9521 11.7878L22.8096 14.5704V20.1484C22.8096 21.1695 22.257 22.1141 21.3703 22.6247L16.5129 25.42ZM30.4171 24.8967C30.4171 25.6625 30.0058 26.3773 29.3248 26.7603L25.1869 29.1344C24.5187 29.5174 23.6834 29.5174 23.0152 29.1344L19.1215 26.9007L22.6811 24.8839C24.3773 23.9138 25.4182 22.1141 25.4182 20.1739V16.0511L29.3376 18.2976C30.0058 18.6805 30.4299 19.3953 30.4299 20.1611L30.4171 24.8967Z" fill="white"/>
</svg>
