<svg width="44" height="45" viewBox="" fill="none" xmlns="http://www.w3.org/2000/svg">
<g id="Isolation_Mode" clip-path="url(#clip0_438_277)">
<path id="Vector" d="M10.2378 38.8393L6.7972 32.8679L3.94406 30.525L2.51748 24.6679L0.587413 23.1536L0 22.0107V42.6679C0 44.5822 1.51049 46.0965 3.35664 46.0965H12.028L10.1818 41.0679" fill="#6D5120"/>
<path id="Vector_2" d="M44 3.45714C44 1.54286 42.4895 0 40.6154 0H13.7063C14.4056 2.11429 17.7902 11.1429 18.8811 13.0571C20.0559 15.0857 22.9091 19.0857 23.049 19.2857L23.2727 19.6C23.5804 19.5429 24.1119 19.4571 24.3357 19.4286H24.4476L24.6154 19.5143C24.6713 19.5429 24.7273 19.5714 24.8392 19.6571L24.979 19.7429V20.4L25.986 22L30.3217 21.3429C30.6294 20.9143 31.6084 19.9429 32.3916 18.8571L33.3147 18.2L33.1189 18.4C33.1469 18.4571 33.1469 18.5429 33.1748 18.6C33.2028 18.7714 33.2587 18.9143 33.3147 19.0286C33.5105 19.3714 34.0699 19.7143 36.7552 21.1714L36.8392 21.2286C37.6503 21.6857 38.7972 22.2857 39.4126 22.6571L39.6364 22.8L39.5524 23.0571C39.2168 23.9714 38.3776 25.9429 38.0699 26.4286C38.042 26.4857 35.3287 31.1143 34.993 31.7143L34.965 31.7714L34.9371 31.8C34.8531 31.8857 34.3496 32.3429 33.8741 32.8286C33.3706 33.3143 32.8671 33.8 32.7273 33.9143L32.6713 33.9714L32.5874 34C32.2517 34.0857 29.8182 34.8857 29.3986 35.0286L27.9441 36.3143C27.9161 36.5143 27.8042 37.2857 27.8042 37.2857L27.6643 37.3714C27.2448 37.6286 25.4266 38.6571 23.9441 39.5143C22.9371 40.0857 21.986 40.6286 21.9301 40.6571L21.9021 40.6857H21.8462C21.6783 40.7143 18.3496 41.7143 16.1119 42.3714L12 45H40.5874C42.4336 45 43.972 43.4286 43.972 41.4571" fill="#6D5120"/>
</g>
<defs>
<clipPath id="clip0_438_277">
<rect width="44" height="45" fill="white"/>
</clipPath>
</defs>
</svg>
