<svg width="200" height="200" viewBox="0 0 200 200" fill="none" xmlns="http://www.w3.org/2000/svg">
<g id="File / File_Document">
<path id="Vector" d="M75.0003 141.667H125M75.0003 116.667H125M108.337 25.0073C107.541 25 106.645 25 105.623 25H68.3353C59.0011 25 54.3305 25 50.7653 26.8166C47.6293 28.4145 45.0814 30.9623 43.4835 34.0983C41.667 37.6635 41.667 42.3341 41.667 51.6683V148.335C41.667 157.669 41.667 162.334 43.4836 165.899C45.0814 169.035 47.6293 171.587 50.7653 173.185C54.327 175 58.992 175 68.3081 175L131.693 175C141.009 175 145.667 175 149.229 173.185C152.365 171.587 154.921 169.035 156.519 165.899C158.334 162.337 158.334 157.679 158.334 148.363V77.714C158.334 76.6918 158.333 75.7961 158.326 75M108.337 25.0073C110.716 25.029 112.215 25.1172 113.652 25.4623C115.352 25.8705 116.982 26.5439 118.474 27.4577C120.155 28.4881 121.599 29.9318 124.479 32.8125L150.525 58.8582C153.408 61.7407 154.841 63.178 155.872 64.8599C156.785 66.3512 157.462 67.9771 157.87 69.6777C158.215 71.1149 158.304 72.6212 158.326 75M108.337 25.0073L108.334 48.3351C108.334 57.6693 108.334 62.3346 110.15 65.8998C111.748 69.0358 114.296 71.5873 117.432 73.1852C120.994 75 125.659 75 134.975 75H158.326" stroke="#C58F35" stroke-width="2" stroke-linecap="round" stroke-linejoin="round"/>
</g>
</svg>
